<svg width="28" height="28" viewBox="0 0 28 28" fill="none" xmlns="http://www.w3.org/2000/svg">
<path fill-rule="evenodd" clip-rule="evenodd" d="M2 7C2 5.89543 2.89543 5 4 5H24C25.1046 5 26 5.89543 26 7V21C26 22.1046 25.1046 23 24 23H4C2.89543 23 2 22.1046 2 21V7ZM7.60071 11.981C7.12333 12.3854 7.40931 13.1654 8.03496 13.1654L11.7601 13.1653C11.7755 13.1653 11.7909 13.1647 11.8061 13.1637H20.6666V11.178H12.4318V9.338C12.4318 8.76589 11.7623 8.45561 11.3258 8.82541L7.60071 11.981ZM19.965 14.8345C20.5906 14.8345 20.8766 15.6145 20.3992 16.0189L16.6741 19.1745C16.2376 19.5443 15.5681 19.234 15.5681 18.6619V16.8218H7.33329V14.8362H16.1939C16.2091 14.8351 16.2244 14.8346 16.2399 14.8346L19.965 14.8345Z" fill="url(#paint0_linear_9_13764)" fill-opacity="0.75"/>
<defs>
<linearGradient id="paint0_linear_9_13764" x1="0.666626" y1="14" x2="23.5577" y2="23.2967" gradientUnits="userSpaceOnUse">
<stop stop-color="#754C00"/>
<stop offset="1" stop-color="#5D3700"/>
</linearGradient>
</defs>
</svg>
