<svg width="40" height="40" viewBox="0 0 40 40" fill="none" xmlns="http://www.w3.org/2000/svg">
<mask id="mask0_9_30716" style="mask-type:luminance" maskUnits="userSpaceOnUse" x="2" y="1" width="37" height="38">
<path d="M2 1.5H39V38.5H2V1.5Z" fill="#E6E6E6"/>
</mask>
<g mask="url(#mask0_9_30716)">
<path d="M20.6761 14.5643C21.3223 12.2183 19.5376 10.3097 16.6978 10.3097H5.04119C4.88176 10.3097 4.72269 10.418 4.68588 10.5516L3.80822 13.7379C3.77141 13.8716 3.87082 13.9799 4.03025 13.9799H15.6869C16.1122 13.9799 16.386 14.242 16.2972 14.5643L14.7202 19.4032C14.6314 19.7254 14.2132 19.9876 13.788 19.9876H9.36251L10.5563 15.8298C10.5931 15.6962 10.4937 15.5879 10.3343 15.5879H6.58163C6.4222 15.5879 6.26313 15.6962 6.22632 15.8298L2.31601 29.4487C2.2792 29.5823 2.3786 29.6906 2.53803 29.6906H6.29067C6.4501 29.6906 6.60919 29.5823 6.64598 29.4487L8.30871 23.6577H13.0212C15.8609 23.6577 18.697 21.7491 19.3432 19.4032L20.6761 14.5643Z" fill="url(#paint0_linear_9_30716)"/>
<foreignObject x="16.5061" y="8.30981" width="24.4292" height="23.381"><div xmlns="http://www.w3.org/1999/xhtml" style="backdrop-filter:blur(1px);clip-path:url(#bgblur_0_9_30716_clip_path);height:100%;width:100%"></div></foreignObject><path data-figma-bg-blur-radius="2" d="M27.7008 10.3098C27.8582 10.3098 27.9564 10.4183 27.92 10.5521L22.7889 29.4484C22.7525 29.5823 22.5955 29.6908 22.4381 29.6908H18.7329C18.5755 29.6908 18.4773 29.5823 18.5137 29.4484L23.6448 10.5521C23.6812 10.4183 23.8382 10.3098 23.9956 10.3098H27.7008ZM38.7084 10.3098C38.9206 10.3098 39.0067 10.4999 38.8676 10.6611L30.9048 19.8822C30.8457 19.9507 30.8237 20.0314 30.8456 20.0999L33.796 29.3396C33.8475 29.5008 33.6581 29.6908 33.446 29.6908H29.2557C29.1479 29.6908 29.0634 29.6391 29.0373 29.5572L26.0174 20.0999C25.9955 20.0314 26.0175 19.9507 26.0766 19.8822L34.2275 10.4432C34.2981 10.3614 34.4106 10.3098 34.5183 10.3098H38.7084Z" fill="url(#paint1_linear_9_30716)" fill-opacity="0.9"/>
</g>
<defs>
<clipPath id="bgblur_0_9_30716_clip_path" transform="translate(-16.5061 -8.30981)"><path d="M27.7008 10.3098C27.8582 10.3098 27.9564 10.4183 27.92 10.5521L22.7889 29.4484C22.7525 29.5823 22.5955 29.6908 22.4381 29.6908H18.7329C18.5755 29.6908 18.4773 29.5823 18.5137 29.4484L23.6448 10.5521C23.6812 10.4183 23.8382 10.3098 23.9956 10.3098H27.7008ZM38.7084 10.3098C38.9206 10.3098 39.0067 10.4999 38.8676 10.6611L30.9048 19.8822C30.8457 19.9507 30.8237 20.0314 30.8456 20.0999L33.796 29.3396C33.8475 29.5008 33.6581 29.6908 33.446 29.6908H29.2557C29.1479 29.6908 29.0634 29.6391 29.0373 29.5572L26.0174 20.0999C25.9955 20.0314 26.0175 19.9507 26.0766 19.8822L34.2275 10.4432C34.2981 10.3614 34.4106 10.3098 34.5183 10.3098H38.7084Z"/>
</clipPath><linearGradient id="paint0_linear_9_30716" x1="14.5" y1="19.5001" x2="8.40954" y2="5.76188" gradientUnits="userSpaceOnUse">
<stop stop-color="#FFBB6A"/>
<stop offset="1" stop-color="#FFF7E3"/>
</linearGradient>
<linearGradient id="paint1_linear_9_30716" x1="34.3305" y1="27.4509" x2="25.4547" y2="15.7565" gradientUnits="userSpaceOnUse">
<stop stop-color="#FF5D73"/>
<stop offset="1" stop-color="#FF8AAD"/>
</linearGradient>
</defs>
</svg>
