<svg width="220" height="120" viewBox="0 0 220 120" fill="none" xmlns="http://www.w3.org/2000/svg">
<path d="M0 32C0 20.799 0 15.1984 2.17987 10.9202C4.09734 7.15695 7.15695 4.09734 10.9202 2.17987C15.1984 0 20.799 0 32 0H188C199.201 0 204.802 0 209.08 2.17987C212.843 4.09734 215.903 7.15695 217.82 10.9202C220 15.1984 220 20.799 220 32V88C220 99.2011 220 104.802 217.82 109.08C215.903 112.843 212.843 115.903 209.08 117.82C204.802 120 199.201 120 188 120H32C20.7989 120 15.1984 120 10.9202 117.82C7.15695 115.903 4.09734 112.843 2.17987 109.08C0 104.802 0 99.2011 0 88V32Z" fill="#F8F8F8"/>
</svg>
