<svg width="14" height="14" viewBox="0 0 14 14" fill="none" xmlns="http://www.w3.org/2000/svg">
<path fill-rule="evenodd" clip-rule="evenodd" d="M6.893 1.29248C4.46337 1.29248 2.39693 2.73762 1.48655 4.70238C1.34902 4.99919 1.51817 5.33703 1.8281 5.4417C2.13802 5.54636 2.47083 5.37759 2.61695 5.08491C3.3644 3.58783 4.98376 2.4771 6.893 2.4771C9.36315 2.4771 11.3656 4.47955 11.3656 6.94969C11.3656 9.41984 9.36315 11.4223 6.893 11.4223C4.91714 11.4223 3.24053 10.1411 2.64865 8.36407C2.55835 8.09297 2.31561 7.89155 2.02986 7.89155C1.65516 7.89155 1.3684 8.22976 1.47678 8.58844C2.17939 10.9137 4.33847 12.6069 6.893 12.6069C10.0174 12.6069 12.5502 10.0741 12.5502 6.94969C12.5502 3.8253 10.0174 1.29248 6.893 1.29248Z" fill="white"/>
<path d="M2 2.49994V5" stroke="white" stroke-width="1.18462" stroke-linecap="round"/>
<path d="M8.81482 6.4789C9.14252 6.71444 9.14252 7.20203 8.81482 7.43757L6.28443 9.25628C5.89391 9.53697 5.34961 9.25788 5.34961 8.77695L5.34961 5.13952C5.34961 4.65859 5.89391 4.3795 6.28443 4.66018L8.81482 6.4789Z" fill="white"/>
</svg>
