<svg width="414" height="44" viewBox="0 0 414 44" fill="none" xmlns="http://www.w3.org/2000/svg">
<mask id="mask0_3024_1502" style="mask-type:alpha" maskUnits="userSpaceOnUse" x="0" y="0" width="414" height="44">
<path d="M26.9564 30.1367H28.972V18.8633H26.9642L24.0189 20.9336V22.832L26.8236 20.8477H26.9564V30.1367Z" fill="black"/>
<path d="M34.5739 30.1367H36.5895V18.8633H34.5817L31.6364 20.9336V22.832L34.4411 20.8477H34.5739V30.1367Z" fill="black"/>
<path d="M40.9258 22.8398C41.668 22.8398 42.1758 22.3242 42.1758 21.6289C42.1758 20.9336 41.668 20.418 40.9258 20.418C40.1914 20.418 39.6758 20.9336 39.6758 21.6289C39.6758 22.3242 40.1914 22.8398 40.9258 22.8398ZM40.9258 28.5742C41.668 28.5742 42.1758 28.0508 42.1758 27.3633C42.1758 26.668 41.668 26.1523 40.9258 26.1523C40.1914 26.1523 39.6758 26.668 39.6758 27.3633C39.6758 28.0508 40.1914 28.5742 40.9258 28.5742Z" fill="black"/>
<path d="M46.9495 25.1055H48.3636C49.7542 25.1055 50.598 25.8008 50.598 26.9336C50.598 28.0273 49.6839 28.7617 48.387 28.7617C47.0824 28.7617 46.1995 28.0898 46.1136 27.043H44.1839C44.2777 29.082 45.9574 30.418 48.4105 30.418C50.848 30.418 52.6605 29.0117 52.6605 27.0742C52.6605 25.5352 51.6995 24.543 50.1683 24.3086V24.1758C51.3636 23.8555 52.2152 22.957 52.223 21.5977C52.2308 19.9805 50.8792 18.582 48.4808 18.582C46.0355 18.582 44.5042 19.9648 44.4027 21.9414H46.2933C46.3792 20.8164 47.1449 20.1914 48.3714 20.1914C49.5667 20.1914 50.2777 20.9258 50.2777 21.8555C50.2777 22.8789 49.4808 23.5977 48.3245 23.5977H46.9495V25.1055Z" fill="black"/>
<path d="M58.4108 30.4102C61.278 30.4102 62.9811 28.168 62.9811 24.3633C62.9811 20.6289 61.1686 18.582 58.4733 18.582C56.0202 18.582 54.2858 20.2305 54.2858 22.5352C54.2858 24.6992 55.8483 26.2773 57.9967 26.2773C59.317 26.2773 60.3874 25.668 60.9186 24.5977H61.0514C61.028 27.2461 60.0827 28.7617 58.4342 28.7617C57.4655 28.7617 56.692 28.2305 56.4499 27.3711H54.442C54.7702 29.207 56.3483 30.4102 58.4108 30.4102ZM58.4811 24.7227C57.1686 24.7227 56.2624 23.8008 56.2624 22.4727C56.2624 21.1992 57.2155 20.2227 58.4889 20.2227C59.7624 20.2227 60.7155 21.2148 60.7155 22.5117C60.7155 23.793 59.7858 24.7227 58.4811 24.7227Z" fill="black"/>
<path d="M69.2223 24.7129L72.9982 24.7236C73.0841 24.7236 73.1163 24.7559 73.1163 24.8418L73.1271 28.6177C73.1271 29.3213 73.3365 29.9014 73.9435 29.9014C74.4537 29.9014 74.7438 29.4341 74.9908 28.9023L79.0299 20.126C79.1534 19.8628 79.2233 19.6211 79.2233 19.4116C79.2233 18.9604 78.8741 18.6167 78.4283 18.6167C78.2189 18.6167 77.9772 18.6865 77.7086 18.8101L68.9376 22.8438C68.422 23.0801 67.9332 23.3755 67.9332 23.8911C67.9332 24.4927 68.4972 24.7129 69.2223 24.7129Z" fill="black"/>
<g clip-path="url(#clip0_3024_1502)">
<rect opacity="0.2" x="341.5" y="19" width="3.5" height="11.5" rx="1" fill="black"/>
<path d="M336.5 22.5C336.5 21.9477 336.948 21.5 337.5 21.5H339C339.552 21.5 340 21.9477 340 22.5V29.5C340 30.0523 339.552 30.5 339 30.5H337.5C336.948 30.5 336.5 30.0523 336.5 29.5V22.5Z" fill="black"/>
<path d="M331.5 25C331.5 24.4477 331.948 24 332.5 24H334C334.552 24 335 24.4477 335 25V29.5C335 30.0523 334.552 30.5 334 30.5H332.5C331.948 30.5 331.5 30.0523 331.5 29.5V25Z" fill="black"/>
<path d="M326.5 27C326.5 26.4477 326.948 26 327.5 26H329C329.552 26 330 26.4477 330 27V29.5C330 30.0523 329.552 30.5 329 30.5H327.5C326.948 30.5 326.5 30.0523 326.5 29.5V27Z" fill="black"/>
<path d="M360.325 28.289C360.39 28.2255 360.426 28.138 360.424 28.0473C360.422 27.9566 360.383 27.8706 360.316 27.8098C358.979 26.6783 357.022 26.6783 355.686 27.8098C355.618 27.8706 355.579 27.9565 355.577 28.0472C355.575 28.1379 355.611 28.2254 355.676 28.289L357.768 30.4029C357.83 30.465 357.913 30.5 358.001 30.5C358.088 30.5 358.171 30.465 358.233 30.4029L360.325 28.289Z" fill="black"/>
<path d="M358 25.369C359.276 25.3689 360.506 25.8435 361.451 26.7005C361.579 26.8221 361.781 26.8195 361.905 26.6946L363.115 25.4711C363.179 25.4069 363.214 25.3198 363.213 25.2293C363.212 25.1389 363.175 25.0526 363.11 24.9897C360.231 22.3088 355.772 22.3088 352.893 24.9897C352.828 25.0526 352.791 25.1389 352.79 25.2294C352.789 25.3199 352.825 25.407 352.889 25.4711L354.098 26.6946C354.223 26.8195 354.424 26.8221 354.552 26.7005C355.497 25.844 356.726 25.3695 358 25.369Z" fill="black"/>
<path opacity="0.2" d="M358 21.3883C360.322 21.3884 362.555 22.2813 364.237 23.8825C364.364 24.0061 364.566 24.0045 364.691 23.879L365.902 22.6555C365.965 22.5918 366.001 22.5055 366 22.4158C365.999 22.326 365.963 22.2402 365.899 22.1772C361.483 17.9409 354.517 17.9409 350.101 22.1772C350.037 22.2401 350.001 22.326 350 22.4157C349.999 22.5055 350.035 22.5917 350.098 22.6555L351.309 23.879C351.434 24.0047 351.637 24.0063 351.763 23.8825C353.446 22.2812 355.679 21.3883 358 21.3883Z" fill="black"/>
<g clip-path="url(#clip1_3024_1502)">
<path d="M372 21.75C372 21.0596 372.56 20.5 373.25 20.5H374V29H373.25C372.56 29 372 28.4404 372 27.75V21.75Z" fill="black"/>
<path d="M374 20.5H376V29H374V20.5Z" fill="black"/>
<path d="M376 20.5H378V29H376V20.5Z" fill="black"/>
<path d="M378 20.5H380V29H378V20.5Z" fill="black"/>
<path d="M380 20.5H382V29H380V20.5Z" fill="black"/>
<path d="M382 20.5H384V29H382V20.5Z" fill="black"/>
<path d="M384 20.5H386V29H384V20.5Z" fill="black"/>
<path d="M388 21.75C388 21.0596 387.44 20.5 386.75 20.5H386V29H386.75C387.44 29 388 28.4404 388 27.75V21.75Z" fill="black"/>
</g>
<g opacity="0.5">
<path fill-rule="evenodd" clip-rule="evenodd" d="M370 21.5C370 19.8431 371.343 18.5 373 18.5H391C392.657 18.5 394 19.8431 394 21.5V28C394 29.6569 392.657 31 391 31H373C371.343 31 370 29.6569 370 28V21.5ZM373 19.5C371.895 19.5 371 20.3954 371 21.5V28C371 29.1046 371.895 30 373 30H391C392.105 30 393 29.1046 393 28V21.5C393 20.3954 392.105 19.5 391 19.5H373Z" fill="black"/>
<path d="M395 27.042C395.883 26.6562 396.5 25.7751 396.5 24.75C396.5 23.7248 395.883 22.8438 395 22.458V27.042Z" fill="black"/>
</g>
</g>
</mask>
<g mask="url(#mask0_3024_1502)">
<foreignObject x="-249.757" y="-250" width="913.757" height="543.651"><div xmlns="http://www.w3.org/1999/xhtml" style="backdrop-filter:blur(125px);clip-path:url(#bgblur_2_3024_1502_clip_path);height:100%;width:100%"></div></foreignObject><g data-figma-bg-blur-radius="250">
<rect width="413.757" height="43.651" transform="matrix(-1 0 0 1 414 0)" fill="white" style="mix-blend-mode:multiply"/>
</g>
<rect width="413.757" height="43.651" transform="matrix(-1 0 0 1 414 0)" fill="white"/>
</g>
<defs>
<clipPath id="bgblur_2_3024_1502_clip_path" transform="translate(249.757 250)"><rect width="413.757" height="43.651" transform="matrix(-1 0 0 1 414 0)"/>
</clipPath><clipPath id="clip0_3024_1502">
<rect width="72" height="16" fill="white" transform="translate(326 16)"/>
</clipPath>
<clipPath id="clip1_3024_1502">
<rect width="16" height="8.5" fill="white" transform="translate(372 20.5)"/>
</clipPath>
</defs>
</svg>
